<svg enable-background="new 0 0 288 288" viewBox="0 0 288 288" xmlns="http://www.w3.org/2000/svg"><path d="m183.35 176.16c-28.6 0-51.87-23.27-51.87-51.87 0-13.95 5.55-26.62 14.54-35.95-4.22-.3-19.54-.51-28.94 10.72-10.98 13.12 4.32 24.57-5.8 38.89 0 0 9.27-2.19 9.04-11.63s-.79-15.08 2.04-15.17c8.9-.25 6.33 30.64-10.65 35.3-16.97 4.65-17.59 25.59-17.59 25.59s3.28-14.62 13.79-15.57c8.25-.75 10.61 1.7 10.65 5.99.03 3.82-8.7 35.07-41.66 34.54-7.41-.36-13.39-7.58-26.47-.89 0 0 17.12.89 14.16 5.64-2.96 4.74-19.84-1.01-22.8-11.57-2.42-8.64-.26-17.96 1.64-21.43-.54-2.38-1-4.78-1.29-6.36-3.46 6.15-19.4 37.18-.53 53.2 14.04 11.91 33.26 6.59 44.86 1.7s31.1-14.08 34.93-11.57-2.47 12.88-21.6 14.49-30.02 15.57-30.02 15.57 13.61-13.48 32.49-12.17 37.27-6.44 38.75-15.99c1.48-9.54 17.53-20.64 26.17-18.37s-4.57 15.03-12.96 14.43c0 0 12.51 2.04 22.09-7.57 7.74-7.77 5.88-15.88 16.25-20.78-2.99.53-6.07.83-9.22.83z" fill="#dba527"/><path d="m183.35 172.58c26.63 0 48.29-21.66 48.29-48.29s-21.66-48.29-48.29-48.29-48.29 21.66-48.29 48.29 21.67 48.29 48.29 48.29zm45.17-48.29c0 9.75-3.11 18.78-8.39 26.17h-11.42c-2.64 0-5.11-1.25-6.68-3.37l-4.48-6.05c-1.6-2.16-2.06-4.96-1.23-7.52l3.05-9.38c.79-2.42 2.64-4.34 5.02-5.23l6.98-2.59c2.61-.97 5.53-.56 7.78 1.07l9.36 6.8c.01.04.01.07.01.1zm-43.61-29.52c0-2.66 1.27-5.16 3.43-6.73l9.14-6.64c8.97 2.96 16.71 8.66 22.21 16.11l-3.34 10.28c-.79 2.42-2.64 4.34-5.02 5.23l-7.45 2.76c-2.61.97-5.53.56-7.78-1.07l-7.77-5.65c-2.15-1.56-3.43-4.07-3.43-6.73v-7.56zm3.4 44.69c2.64 0 5.11 1.25 6.68 3.37l4.44 6c1.6 2.16 2.06 4.96 1.23 7.52l-3.57 10.98c-4.33 1.39-8.95 2.14-13.74 2.14-4.74 0-9.32-.74-13.62-2.1l-3.56-10.95c-.82-2.53-.38-5.31 1.19-7.46l4.42-6.07c1.56-2.15 4.06-3.42 6.72-3.42h9.81zm-19.08-58.06 9.14 6.64c2.15 1.56 3.43 4.07 3.43 6.73v7.57c0 2.66-1.27 5.16-3.43 6.73l-7.89 5.73c-2.23 1.62-5.13 2.03-7.72 1.09l-7.05-2.55c-2.41-.87-4.28-2.81-5.08-5.25l-3.5-10.76c5.51-7.36 13.2-12.99 22.1-15.93zm-31.04 43.13 9.5-6.9c2.23-1.62 5.13-2.03 7.72-1.09l6.89 2.5c2.41.87 4.28 2.81 5.08 5.25l3.04 9.34c.82 2.53.38 5.31-1.19 7.46l-4.27 5.87c-1.56 2.15-4.06 3.42-6.72 3.42h-11.71c-5.21-7.31-8.29-16.23-8.34-25.85z" fill="#16244e"/><path d="m147.99 36.55c-59.25 0-107.45 48.2-107.45 107.45 0 17.09 4.02 33.25 11.14 47.61 1.16-.47 2.3-.85 3.43-1.14-7.03-13.99-10.99-29.77-10.99-46.46 0-57.28 46.6-103.87 103.87-103.87 57.28 0 103.87 46.6 103.87 103.87 0 57.28-46.6 103.87-103.87 103.87-22.19 0-42.78-7-59.67-18.9-1.4.46-2.73.98-3.98 1.54 17.83 13.15 39.85 20.94 63.65 20.94 59.25 0 107.45-48.2 107.45-107.45 0-59.26-48.2-107.46-107.45-107.46z" fill="#16244e"/><path d="m147.99 41.92c-56.38 0-102.08 45.7-102.08 102.08 0 16.58 3.96 32.23 10.97 46.08 1.36-.25 2.7-.38 4.04-.38 4.18 0 7.52 1.19 10.47 2.24 2.09.74 3.89 1.39 5.64 1.48.24 0 .48.01.72.01 5.76 0 10.99-1.06 15.67-3.13-10.6-12.48-16.99-28.64-16.99-46.3 0-39.53 32.05-71.58 71.58-71.58 6.64 0 13.07.91 19.17 2.6 5.1-1.68 10.54-2.6 16.19-2.6 28.6 0 51.87 23.27 51.87 51.87 0 15.89-7.19 30.12-18.47 39.64-.35 1.22-.75 2.42-1.16 3.61l-.37 1.04c-10.03 27.42-36.33 47-67.23 47-2.33 0-4.64-.12-6.92-.33-2.29 2.65-5.61 5.03-9.83 6.99-7.06 3.28-15.85 5.09-24.76 5.09-1.49 0-2.99-.05-4.46-.15-.78-.05-1.57-.08-2.35-.08-3.28 0-6.37.49-9.22 1.25 16.38 11.2 36.19 17.75 57.53 17.75 56.38 0 102.08-45.7 102.08-102.08s-45.71-102.1-102.09-102.1z" fill="#16244e"/><path d="m207.97 172c-10.57 22.55-33.47 38.2-59.97 38.2-1.31 0-2.61-.04-3.9-.12-.39 1.19-.97 2.35-1.73 3.47 1.86.15 3.73.23 5.63.23 29.41 0 54.61-18.29 64.87-44.09z" fill="#16244e"/><path d="m98.26 187.66c-10.25-11.66-16.48-26.95-16.48-43.66 0-36.51 29.7-66.21 66.21-66.21 3.65 0 7.23.3 10.72.87 1.76-.96 3.59-1.8 5.47-2.55-5.2-1.24-10.62-1.9-16.19-1.9-38.48 0-69.79 31.31-69.79 69.79 0 17.36 6.37 33.26 16.91 45.49 1.08-.56 2.14-1.16 3.15-1.83z" fill="#16244e"/><g fill="#fff"><path d="m57.13 171.11-2.43-9.82 2.98-.74 1.53 6.18 3.67-.91-1.43-5.77 2.96-.73 1.43 5.77 6.46-1.6.9 3.65z"/><path d="m61.6 132.62c5.43.18 8.6 3.58 8.44 8.42-.17 4.91-3.97 7.66-8.68 7.5-4.96-.17-8.56-3.46-8.39-8.35.17-5.08 4.07-7.72 8.63-7.57zm-.18 11.96c3.24.11 5.57-1.34 5.66-3.84.09-2.53-2.27-4.06-5.49-4.17-2.97-.1-5.57 1.24-5.66 3.81-.08 2.54 2.27 4.09 5.49 4.2z"/><path d="m68.93 107.08c5.12 1.82 7.12 6.02 5.5 10.58-1.64 4.63-6.1 6.1-10.55 4.52-4.68-1.66-7.11-5.89-5.48-10.49 1.7-4.79 6.22-6.14 10.53-4.61zm-3.8 11.35c3.06 1.08 5.72.41 6.56-1.95.85-2.38-.94-4.56-3.97-5.63-2.8-1-5.69-.51-6.55 1.93-.85 2.38.93 4.58 3.96 5.65z"/><path d="m71.9 92.37-2.55 3.64-2.58-1.8 7.3-10.43 2.58 1.8-2.59 3.7 10.99 7.69-2.16 3.08z"/><path d="m83.01 74.49c.63-.78 2.06-2.17 3.5-3.36 1.75-1.46 2.97-2.19 4.35-2.42 1.28-.27 2.64.06 3.6 1.21.94 1.13 1.17 2.74.17 4.46l.03.04c1.78-.82 3.77-.62 5.14 1.02.96 1.15 1.19 2.5.93 3.8-.31 1.51-1.51 3.21-4.04 5.32-1.41 1.18-2.55 1.97-3.27 2.41zm6.91 2.49.94-.79c1.51-1.26 1.8-2.56 1.01-3.5-.8-.96-1.96-.86-3.26.23-.62.52-.95.86-1.16 1.1zm4.7 5.64c.31-.2.65-.48 1.14-.89 1.3-1.09 2.04-2.54.92-3.88-1.07-1.28-2.65-.83-4.08.36l-.98.82z"/><path d="m112.34 68.99.64 4.36-3.55 1.57-2.08-17.19 4.49-1.99 11.4 13.06-3.68 1.63-2.89-3.37zm2.7-4.27-2.37-2.79c-.67-.78-1.43-1.78-2.06-2.58l-.04.02c.17 1 .46 2.24.6 3.23l.52 3.61z"/><path d="m129.25 50.33 3.71-.57 2.04 13.26 6.51-1 .48 3.11-10.22 1.57z"/><path d="m152.35 48.49 3.74.34-1.22 13.36 6.56.6-.29 3.13-10.3-.94z"/><path d="m140.87 222.54 3.76.13-.47 13.4 6.58.23-.11 3.14-10.33-.36z"/><path d="m171.16 229.47-5.97 1.24.8 3.85 6.66-1.38.62 3.01-10.34 2.14-3.36-16.21 10.01-2.07.62 3.01-6.33 1.31.7 3.37 5.97-1.24z"/><path d="m187.08 226.48.86 4.33-3.47 1.75-2.93-17.06 4.39-2.21 12.04 12.47-3.6 1.81-3.05-3.22zm2.49-4.39-2.5-2.67c-.71-.74-1.52-1.71-2.18-2.48l-.04.02c.22.99.57 2.22.76 3.19l.7 3.58z"/><path d="m217.6 208.87c-.59 1.07-1.84 2.94-3.45 4.42-2.23 2.04-4.36 2.95-6.48 2.89-2.09-.03-4.16-1.06-5.78-2.87-3.69-4.08-2.86-9.1 1.15-12.76 1.58-1.44 3.08-2.24 3.94-2.5l1.44 2.74c-.94.32-1.99.85-3.33 2.08-2.3 2.1-2.85 5-.43 7.65 2.3 2.52 5.24 2.57 7.51.5.63-.58 1.08-1.12 1.19-1.42l-2.34-2.56-1.89 1.72-1.97-2.16 4.55-4.16z"/><path d="m214.48 187.13 8.16 4.93c2.44 1.47 4.24 1.3 5.23-.34 1.02-1.68.4-3.32-2.1-4.83l-8.16-4.93 1.93-3.2 7.95 4.8c4.37 2.64 5.12 6.11 2.88 9.81-2.16 3.57-5.41 4.48-9.93 1.75l-7.9-4.78z"/><path d="m234.92 163.3-1.67 5.86 3.78 1.08 1.87-6.54 2.95.84-2.9 10.16-15.92-4.54 2.81-9.83 2.95.84-1.77 6.21 3.31.94 1.67-5.86z"/></g></svg>