<svg enable-background="new 0 0 288 288" viewBox="0 0 288 288" xmlns="http://www.w3.org/2000/svg"><g fill="#16244e"><path d="m14.54 135.27h23.02v6.47h-13.67v5.26h11.68v6.08h-11.68v12.31h-9.35z"/><path d="m43.51 150.36c0-4.92 1.37-8.75 4.11-11.49s6.56-4.11 11.45-4.11c5.02 0 8.88 1.35 11.59 4.04s4.07 6.47 4.07 11.32c0 3.52-.59 6.41-1.78 8.67-1.19 2.25-2.9 4.01-5.14 5.26s-5.03 1.88-8.38 1.88c-3.4 0-6.21-.54-8.44-1.62s-4.03-2.8-5.42-5.14c-1.37-2.36-2.06-5.29-2.06-8.81zm9.31.04c0 3.04.57 5.23 1.7 6.56s2.67 1.99 4.61 1.99c2 0 3.55-.65 4.65-1.95s1.64-3.64 1.64-7.01c0-2.84-.57-4.91-1.72-6.22-1.14-1.31-2.7-1.96-4.66-1.96-1.88 0-3.39.66-4.52 1.99s-1.7 3.53-1.7 6.6z"/><path d="m80.68 150.36c0-4.92 1.37-8.75 4.11-11.49s6.56-4.11 11.45-4.11c5.02 0 8.88 1.35 11.59 4.04s4.07 6.47 4.07 11.32c0 3.52-.59 6.41-1.78 8.67-1.19 2.25-2.9 4.01-5.14 5.26s-5.03 1.88-8.38 1.88c-3.4 0-6.21-.54-8.44-1.62s-4.03-2.8-5.42-5.14c-1.36-2.36-2.06-5.29-2.06-8.81zm9.32.04c0 3.04.57 5.23 1.7 6.56s2.67 1.99 4.61 1.99c2 0 3.55-.65 4.65-1.95s1.64-3.64 1.64-7.01c0-2.84-.57-4.91-1.72-6.22-1.14-1.31-2.7-1.96-4.66-1.96-1.88 0-3.39.66-4.52 1.99-1.14 1.33-1.7 3.53-1.7 6.6z"/><path d="m115.82 135.27h28.31v7.44h-9.5v22.69h-9.31v-22.69h-9.5z"/><path d="m150.47 135.27h17.43c2.91 0 5.14.72 6.69 2.16 1.56 1.44 2.33 3.22 2.33 5.34 0 1.78-.55 3.31-1.66 4.58-.74.85-1.82 1.52-3.25 2.01 2.17.52 3.76 1.42 4.78 2.68 1.02 1.27 1.53 2.86 1.53 4.78 0 1.56-.36 2.97-1.09 4.21-.73 1.25-1.72 2.23-2.98 2.96-.78.45-1.96.78-3.54.99-2.1.27-3.49.41-4.17.41h-16.08v-30.12zm9.39 11.82h4.05c1.45 0 2.46-.25 3.03-.75s.85-1.22.85-2.17c0-.88-.28-1.56-.85-2.06-.57-.49-1.56-.74-2.97-.74h-4.11zm0 11.84h4.75c1.6 0 2.73-.28 3.39-.85s.99-1.33.99-2.29c0-.89-.33-1.61-.98-2.15s-1.79-.81-3.42-.81h-4.73z"/><path d="m203.11 160.43h-10.57l-1.47 4.97h-9.51l11.33-30.14h10.16l11.32 30.14h-9.75zm-1.93-6.52-3.33-10.83-3.29 10.83z"/><path d="m219.43 135.27h9.31v22.71h14.53v7.42h-23.85v-30.13z"/><path d="m249.62 135.27h9.31v22.71h14.53v7.42h-23.85v-30.13z"/></g><path d="m133.12 206.44v40.33c3.59 2.3 7.26 4.41 11.02 6.31 3.76-1.9 7.43-4.01 11.02-6.31v-40.32c-3.72-.16-7.45-.25-11.19-.25-3.62.01-7.24.09-10.85.24z" fill="#dba527"/><path d="m111.08 229.09v-20.73c-5.41.72-10.69 1.61-15.8 2.68 4.98 6.6 10.25 12.61 15.8 18.05z" fill="#dba527"/><path d="m192.97 211.11c-5.09-1.07-10.36-1.97-15.75-2.7v20.68c5.52-5.43 10.78-11.42 15.75-17.98z" fill="#dba527"/><path d="m144.15 105.73c23.94 0 43.41-19.48 43.41-43.41 0-23.94-19.48-43.41-43.41-43.41-23.94 0-43.41 19.48-43.41 43.41-.01 23.93 19.47 43.41 43.41 43.41zm40.6-43.42c0 8.76-2.8 16.88-7.54 23.53h-10.26c-2.37 0-4.6-1.12-6.01-3.03l-4.03-5.44c-1.44-1.94-1.85-4.46-1.1-6.76l2.74-8.44c.71-2.17 2.37-3.91 4.51-4.7l6.28-2.32c2.34-.87 4.97-.51 6.99.96l8.41 6.11c.01.04.01.07.01.09zm-39.2-26.54c0-2.39 1.15-4.64 3.08-6.05l8.22-5.97c8.07 2.66 15.02 7.79 19.97 14.48l-3 9.25c-.71 2.17-2.37 3.91-4.51 4.7l-6.7 2.48c-2.34.87-4.97.51-6.99-.96l-6.99-5.08c-1.94-1.41-3.08-3.66-3.08-6.05zm3.05 40.18c2.37 0 4.6 1.12 6.01 3.03l3.99 5.39c1.44 1.94 1.85 4.46 1.1 6.76l-3.21 9.87c-3.9 1.25-8.05 1.93-12.35 1.93-4.27 0-8.38-.66-12.24-1.89l-3.2-9.84c-.74-2.28-.34-4.77 1.07-6.71l3.97-5.46c1.41-1.93 3.65-3.08 6.04-3.08zm-17.16-52.2 8.22 5.97c1.94 1.41 3.08 3.65 3.08 6.05v6.81c0 2.39-1.15 4.64-3.08 6.05l-7.09 5.15c-2.01 1.46-4.61 1.83-6.94.98l-6.33-2.29c-2.17-.79-3.85-2.53-4.56-4.72l-3.14-9.67c4.93-6.63 11.84-11.69 19.84-14.33zm-27.9 38.78 8.54-6.2c2.01-1.46 4.61-1.83 6.94-.98l6.19 2.24c2.17.79 3.85 2.53 4.56 4.72l2.73 8.4c.74 2.28.34 4.77-1.07 6.71l-3.84 5.27c-1.41 1.93-3.65 3.08-6.04 3.08h-10.53c-4.66-6.58-7.43-14.59-7.48-23.24z" fill="#16244e"/><path d="m228.21 172.74c-3.25 7.29-6.94 14.71-11.12 22.07-19.03 33.46-43.34 57.16-72.27 70.44l-.67.31-.67-.31c-28.93-13.28-53.24-36.98-72.27-70.44-4.18-7.36-7.87-14.78-11.12-22.07h-3.52c3.43 7.8 7.36 15.76 11.85 23.66 19.37 34.06 44.17 58.21 73.72 71.78l2.01.92 2.01-.92c29.55-13.57 54.35-37.72 73.72-71.78 4.49-7.89 8.42-15.86 11.85-23.66z" fill="#16244e"/><path d="m190.77 62.51c6.64 1.06 13.24 2.35 19.79 3.86l1.25.29v20.37l18.08 4.3-.37 1.56c-.36 1.52-.54 3.07-.54 4.61 0 9.5 6.76 17.72 16.07 19.55l1.64.32-.39 1.63c-.71 2.97-1.52 6.16-2.44 9.54h3.33c.83-3.1 1.58-6.05 2.24-8.79l1.17-4.89-4.93-.97c-7.8-1.53-13.47-8.43-13.47-16.39 0-1.29.15-2.59.46-3.87l1.11-4.69-18.74-4.46v-20.37l-3.74-.86c-6.82-1.58-13.71-2.91-20.63-4.01.07 1.02.11 2.04.11 3.08.01.06 0 .13 0 .19z" fill="#16244e"/><path d="m41.1 128.56h3.33c-.92-3.38-1.73-6.58-2.44-9.54l-.39-1.63 1.64-.32c9.31-1.83 16.07-10.05 16.07-19.55 0-1.54-.18-3.09-.54-4.61l-.37-1.56 18.08-4.3v-20.38l1.25-.29c6.55-1.51 13.15-2.8 19.79-3.86 0-.07 0-.13 0-.2 0-1.04.05-2.06.11-3.08-6.92 1.09-13.8 2.43-20.63 4.01l-3.74.86v20.39l-18.74 4.46 1.11 4.69c.3 1.28.46 2.58.46 3.87 0 7.97-5.66 14.86-13.47 16.39l-4.93.97 1.17 4.89c.66 2.74 1.4 5.69 2.24 8.79z" fill="#16244e"/><path d="m61.84 172.74c15.55 34.62 41.12 72.14 82.3 91.05 41.18-18.91 66.75-56.43 82.3-91.05zm82.31 83.93c-20.74-10.13-38.97-26.12-54.38-47.7 16.22-3.82 34.66-5.99 54.21-5.99 19.67 0 38.21 2.19 54.51 6.06-15.42 21.54-33.62 37.52-54.34 47.63z" fill="#16244e"/><path d="m227.37 97.51c0-1.72.21-3.38.59-4.98l-17.76-4.22v-20.37c-6.46-1.49-12.95-2.76-19.47-3.81-.96 24.87-21.48 44.81-46.59 44.81-25.1 0-45.62-19.94-46.59-44.81-6.52 1.05-13.02 2.32-19.47 3.81v20.36l-17.76 4.22c.38 1.6.59 3.27.59 4.98 0 10.47-7.47 19.18-17.36 21.13.73 3.06 1.58 6.38 2.54 9.92h196.1c.97-3.54 1.81-6.86 2.54-9.92-9.89-1.93-17.36-10.65-17.36-21.12zm11.69 27.13h-190.05l-.65-2.25h191.28z" fill="#16244e"/><path d="m99.68 181.87c7.39-1.29 11.11-1.8 18.55-2.55.18 1.81.27 2.71.46 4.52-2.45.25-3.68.39-6.13.69.69 5.5 1.04 8.26 1.73 13.76-2.27.29-3.41.44-5.67.78-.82-5.49-1.23-8.23-2.05-13.71-2.44.37-3.66.56-6.1.99-.32-1.79-.47-2.69-.79-4.48z" fill="#fff"/><path d="m122.38 178.93c6.57-.56 9.87-.73 16.46-.87.03 1.57.05 2.36.08 3.93-4.06.09-6.09.17-10.15.42.07 1.17.11 1.75.18 2.92 3.72-.23 5.58-.31 9.31-.4.04 1.5.05 2.25.09 3.75-3.67.09-5.5.17-9.17.39.09 1.45.13 2.17.22 3.62 4.01-.24 6.01-.33 10.02-.41.03 1.67.05 2.5.08 4.17-6.23.12-9.35.29-15.56.82-.63-7.33-.94-11-1.56-18.34z" fill="#fff"/><path d="m155.37 193.62c-2.62-.12-3.94-.16-6.56-.21-.39 1.21-.58 1.81-.96 3.02-2.33-.03-3.5-.04-5.83-.01 2.25-6.19 4.69-12.34 7.3-18.38 2.68.05 4.02.09 6.7.22 2.22 6.2 4.26 12.49 6.11 18.81-2.39-.18-3.58-.25-5.97-.37-.32-1.23-.48-1.84-.79-3.08zm-1.04-4.02c-.73-2.68-1.11-4.02-1.89-6.69-.94 2.62-1.39 3.93-2.29 6.56 1.67.03 2.51.06 4.18.13z" fill="#fff"/><path d="m166.75 178.97c3.22.28 4.84.44 8.05.82.72 4.6 1.05 6.9 1.65 11.5 1.76-4.29 2.66-6.43 4.52-10.69 3.21.46 4.81.71 8 1.27-1.27 7.26-1.9 10.88-3.17 18.14-1.85-.32-2.78-.47-4.63-.76.86-5.55 1.29-8.33 2.14-13.88-2.37 5.32-3.51 7.99-5.72 13.35-1.68-.23-2.52-.34-4.21-.55-.75-5.75-1.17-8.63-2.1-14.37-.59 5.59-.89 8.38-1.48 13.96-1.86-.2-2.8-.29-4.66-.45.66-7.33.97-11 1.61-18.34z" fill="#fff"/></svg>