<svg enable-background="new 0 0 288 288" viewBox="0 0 288 288" xmlns="http://www.w3.org/2000/svg"><path d="m117.36 224.57c12.32 3.32 21.09 7.62 26.56 10.88 5.54-3.42 14.46-7.85 27.02-10.94 7.73-1.9 17.24-8.86 24.94-17.74h-103.44c8.28 9.49 18.06 15.95 24.92 17.8z" fill="#16244e"/><g fill="#dba527"><path d="m105.81 154.38c-.65-2.98-1.48-10.28 5.07-12.98 0 0 3.45 11.19-4.54 14.19-7.59 3.88-13.54-6.2-13.54-6.2 6.41-3.02 11.25 2.51 13.01 4.99z"/><path d="m100.73 146.1c-.12-2.93.31-9.98 6.97-11.45 0 0 1.4 11.18-6.66 12.69-7.84 2.42-11.8-8.13-11.8-8.13 6.56-1.8 10.23 4.24 11.49 6.89z"/><path d="m98.21 137.28c.08-2.78.96-9.44 7.36-10.39 0 0 .59 10.68-7.15 11.58-7.59 1.77-10.64-8.48-10.64-8.48 6.35-1.27 9.41 4.7 10.43 7.29z"/><path d="m97.14 127.67c.57-2.31 2.5-7.71 8.02-7.36 0 0-1.43 9.03-8.06 8.39-6.66.11-7.37-9.01-7.37-9.01 5.53.09 7.02 5.63 7.41 7.98z"/><path d="m97.55 119.82c.77-1.99 3.09-6.57 7.95-5.62 0 0-2.29 7.86-8.11 6.54-5.93-.65-5.52-8.83-5.52-8.83 4.91.7 5.61 5.79 5.68 7.91z"/><path d="m99.05 112.96c.87-1.51 3.31-4.94 7.13-3.58 0 0-2.82 6.08-7.37 4.3-4.72-1.26-3.39-7.83-3.39-7.83 3.89 1.17 3.83 5.38 3.63 7.11z"/><path d="m100.92 107.24c.97-1.32 3.63-4.25 7.05-2.56 0 0-3.3 5.37-7.35 3.21-4.27-1.69-2.3-7.68-2.3-7.68 3.5 1.51 2.98 5.43 2.6 7.03z"/><path d="m103.43 102.16c1.04-1.13 3.83-3.61 6.85-1.68 0 0-3.63 4.69-7.2 2.26-3.82-2.01-1.38-7.42-1.38-7.42 3.12 1.77 2.24 5.39 1.73 6.84z"/><path d="m106.14 97.86c.94-.76 3.36-2.35 5.48-.52 0 0-3.34 3.21-5.82.93-2.73-1.99-.23-5.89-.23-5.89 2.22 1.72 1.13 4.42.57 5.48z"/><path d="m107.82 95.58s4.3.73 7.18-6.23c0 .01-5.62-.68-7.18 6.23z"/><path d="m182.31 154.38c.65-2.98 1.48-10.28-5.07-12.98 0 0-3.45 11.19 4.54 14.19 7.59 3.88 13.54-6.2 13.54-6.2-6.41-3.02-11.24 2.51-13.01 4.99z"/><path d="m187.4 146.1c.12-2.93-.31-9.98-6.97-11.45 0 0-1.4 11.18 6.66 12.69 7.84 2.42 11.8-8.13 11.8-8.13-6.57-1.8-10.23 4.24-11.49 6.89z"/><path d="m189.91 137.28c-.08-2.78-.96-9.44-7.36-10.39 0 0-.59 10.68 7.15 11.58 7.59 1.77 10.64-8.48 10.64-8.48-6.34-1.27-9.41 4.7-10.43 7.29z"/><path d="m190.99 127.67c-.57-2.31-2.5-7.71-8.02-7.36 0 0 1.43 9.03 8.06 8.39 6.66.11 7.37-9.01 7.37-9.01-5.54.09-7.03 5.63-7.41 7.98z"/><path d="m190.57 119.82c-.77-1.99-3.09-6.57-7.95-5.62 0 0 2.29 7.86 8.11 6.54 5.93-.65 5.52-8.83 5.52-8.83-4.91.7-5.6 5.79-5.68 7.91z"/><path d="m189.08 112.96c-.87-1.51-3.31-4.94-7.13-3.58 0 0 2.82 6.08 7.37 4.3 4.72-1.26 3.39-7.83 3.39-7.83-3.89 1.17-3.83 5.38-3.63 7.11z"/><path d="m187.2 107.24c-.97-1.32-3.63-4.25-7.05-2.56 0 0 3.3 5.37 7.35 3.21 4.27-1.69 2.3-7.68 2.3-7.68-3.49 1.51-2.97 5.43-2.6 7.03z"/><path d="m184.7 102.16c-1.04-1.13-3.83-3.61-6.85-1.68 0 0 3.63 4.69 7.2 2.26 3.82-2.01 1.38-7.42 1.38-7.42-3.13 1.77-2.24 5.39-1.73 6.84z"/><path d="m181.99 97.86c-.94-.76-3.36-2.35-5.48-.52 0 0 3.33 3.21 5.82.93 2.73-1.99.23-5.89.23-5.89-2.22 1.72-1.14 4.42-.57 5.48z"/><path d="m180.31 95.58s-4.3.73-7.18-6.23c0 .01 5.62-.68 7.18 6.23z"/></g><path d="m144.06 156.44c19.3 0 35.01-15.7 35.01-35.01s-15.7-35.01-35.01-35.01-35.01 15.7-35.01 35.01 15.71 35.01 35.01 35.01zm32.75-35.01c0 7.07-2.26 13.61-6.08 18.97h-8.28c-1.91 0-3.71-.91-4.84-2.44l-3.25-4.38c-1.16-1.57-1.49-3.6-.89-5.45l2.21-6.8c.57-1.75 1.91-3.15 3.64-3.79l5.06-1.87c1.89-.7 4.01-.41 5.64.78l6.79 4.93zm-31.62-21.41c0-1.93.92-3.74 2.48-4.88l6.63-4.81c6.5 2.15 12.11 6.28 16.11 11.68l-2.42 7.46c-.57 1.75-1.91 3.15-3.64 3.79l-5.4 2c-1.89.7-4.01.41-5.64-.78l-5.63-4.09c-1.56-1.13-2.48-2.95-2.48-4.88v-5.49zm2.47 32.4c1.91 0 3.71.91 4.84 2.44l3.22 4.35c1.16 1.57 1.49 3.6.89 5.45l-2.59 7.96c-3.14 1.01-6.49 1.55-9.96 1.55-3.44 0-6.76-.54-9.87-1.52l-2.58-7.94c-.6-1.84-.28-3.85.86-5.41l3.2-4.4c1.13-1.56 2.95-2.48 4.87-2.48zm-13.84-42.09 6.63 4.81c1.56 1.13 2.48 2.95 2.48 4.88v5.49c0 1.93-.92 3.74-2.48 4.88l-5.72 4.16c-1.62 1.18-3.72 1.47-5.6.79l-5.11-1.85c-1.75-.63-3.11-2.04-3.68-3.8l-2.53-7.8c3.98-5.35 9.56-9.43 16.01-11.56zm-22.5 31.27 6.88-5c1.62-1.18 3.72-1.47 5.6-.79l4.99 1.81c1.75.63 3.11 2.04 3.68 3.8l2.2 6.77c.6 1.84.28 3.85-.86 5.41l-3.1 4.25c-1.13 1.56-2.95 2.48-4.87 2.48h-8.49c-3.76-5.29-5.99-11.75-6.03-18.73z" fill="#16244e"/><path d="m144 35.04 3.51 7.1 7.84 1.14-5.67 5.53 1.34 7.82-7.02-3.69-7.01 3.69 1.34-7.82-5.68-5.53 7.85-1.14z" fill="#dba527"/><path d="m124.96 45.14 2.18 4.41 4.87.71-3.53 3.44.84 4.85-4.36-2.29-4.36 2.29.83-4.85-3.53-3.44 4.88-.71z" fill="#dba527"/><path d="m109.9 51.79 1.59 3.23 3.57.51-2.58 2.52.61 3.54-3.19-1.67-3.18 1.67.6-3.54-2.57-2.52 3.56-.51z" fill="#dba527"/><path d="m163.17 45.14-2.18 4.41-4.87.71 3.52 3.44-.83 4.85 4.36-2.29 4.36 2.29-.83-4.85 3.52-3.44-4.87-.71z" fill="#dba527"/><path d="m178.22 51.79-1.59 3.23-3.56.51 2.58 2.52-.61 3.54 3.18-1.67 3.19 1.67-.61-3.54 2.58-2.52-3.56-.51z" fill="#dba527"/><path d="m40.99 163.8h206.03v39.06h-206.03z" fill="#dba527"/><path d="m205.19 206.37c-9.14 12.34-21.96 22.34-32.58 24.95-15.26 3.75-24.59 9.55-28.62 12.51-4.03-2.83-13.3-8.41-28.45-12.5-9.32-2.51-22.5-11.61-32.44-24.97h-8.54c10.12 15.37 25.66 28.1 39.15 31.74 18.97 5.11 27.93 12.73 28.01 12.8l2.37 2.06 2.31-2.11c.09-.08 9.02-8.09 27.88-12.73 13.47-3.32 29.25-16.13 39.44-31.76h-8.53z" fill="#16244e"/><path d="m72.82 137.64c-2.87 5.77-6.13 12.32-8.22 19.96-.25.91-.46 1.81-.65 2.71h7.19v-.01h35.99l-20.46-3.97c-7.02-1.36-10.82-9.04-7.64-15.44l.06-.12c7.69-15.46 14.96-30.08-6.52-54.31l15.8-20.01c34.61 18.95 76.72 18.95 111.32 0l15.8 20.01c-21.47 24.15-14.61 37.97-6.7 53.9.09.18.18.37.27.55 3.18 6.41-.62 14.08-7.64 15.44l-20.43 3.96h35.93v.01h7.2c-.2-.9-.41-1.81-.67-2.72-2.19-7.88-5.49-14.51-8.39-20.36-7.84-15.79-13.03-26.22 7.58-48.22l2.06-2.2-23.25-29.46-2.63 1.53c-33.8 19.68-75.78 19.68-109.58 0l-2.63-1.53-23.24 29.44 2.06 2.2c20.63 22.02 15.08 33.19 7.39 48.64z" fill="#16244e"/><path d="m281.78 147.3-54.75-.3 22.37 13.31v26.89h32.26l-16.69-20.59z" fill="#dba527"/><path d="m6.22 146.97 54.75-.31-22.37 13.32v26.88h-32.26l16.68-20.58z" fill="#dba527"/><path d="m46.06 172h17.45v4.91h-10.36v3.99h8.85v4.61h-8.85v9.33h-7.09z" fill="#16244e"/><path d="m68.01 183.44c0-3.73 1.04-6.63 3.12-8.71s4.97-3.11 8.68-3.11c3.8 0 6.73 1.02 8.78 3.06 2.06 2.04 3.08 4.9 3.08 8.57 0 2.67-.45 4.86-1.35 6.57s-2.2 3.04-3.89 3.99c-1.7.95-3.81 1.43-6.35 1.43-2.58 0-4.71-.41-6.39-1.23-1.69-.82-3.06-2.12-4.1-3.89-1.05-1.79-1.58-4.01-1.58-6.68zm7.06.03c0 2.31.43 3.96 1.29 4.97s2.02 1.51 3.5 1.51c1.52 0 2.69-.49 3.52-1.48s1.25-2.76 1.25-5.31c0-2.15-.43-3.72-1.3-4.71s-2.04-1.49-3.53-1.49c-1.42 0-2.57.5-3.43 1.51-.87 1.01-1.3 2.67-1.3 5z" fill="#16244e"/><path d="m96.18 183.44c0-3.73 1.04-6.63 3.12-8.71s4.97-3.11 8.68-3.11c3.8 0 6.73 1.02 8.79 3.06s3.08 4.9 3.08 8.57c0 2.67-.45 4.86-1.35 6.57s-2.2 3.04-3.89 3.99c-1.7.95-3.81 1.43-6.35 1.43-2.58 0-4.71-.41-6.39-1.23-1.69-.82-3.06-2.12-4.1-3.89-1.06-1.79-1.59-4.01-1.59-6.68zm7.06.03c0 2.31.43 3.96 1.29 4.97s2.02 1.51 3.5 1.51c1.52 0 2.69-.49 3.52-1.48s1.25-2.76 1.25-5.31c0-2.15-.43-3.72-1.3-4.71s-2.04-1.49-3.53-1.49c-1.42 0-2.57.5-3.43 1.51-.87 1.01-1.3 2.67-1.3 5z" fill="#16244e"/><path d="m122.81 172h21.45v5.64h-7.2v17.2h-7.06v-17.2h-7.2v-5.64z" fill="#16244e"/><path d="m149.06 172h13.21c2.2 0 3.89.55 5.07 1.64s1.77 2.44 1.77 4.05c0 1.35-.42 2.51-1.26 3.47-.56.64-1.38 1.15-2.46 1.53 1.64.39 2.85 1.07 3.62 2.03s1.16 2.17 1.16 3.62c0 1.18-.27 2.25-.83 3.19-.55.94-1.3 1.69-2.26 2.24-.59.34-1.49.59-2.68.75-1.59.21-2.64.31-3.16.31h-12.18zm7.12 8.96h3.07c1.1 0 1.87-.19 2.3-.57s.65-.93.65-1.64c0-.66-.22-1.18-.65-1.56s-1.18-.56-2.25-.56h-3.12zm0 8.97h3.6c1.22 0 2.07-.22 2.57-.65s.75-1.01.75-1.74c0-.68-.25-1.22-.74-1.63s-1.36-.61-2.59-.61h-3.58v4.63z" fill="#16244e"/><path d="m188.95 191.07h-8.01l-1.11 3.77h-7.2l8.57-22.84h7.7l8.58 22.83h-7.39zm-1.47-4.94-2.52-8.21-2.49 8.21z" fill="#16244e"/><path d="m201.32 172h7.06v17.21h11.01v5.62h-18.07z" fill="#16244e"/><path d="m224.19 172h7.06v17.21h11.01v5.62h-18.07z" fill="#16244e"/><path d="m121.95 212.8h9.07v2.39h-3.04v7.27h-2.99v-7.27h-3.04z" fill="#fff"/><path d="m133.04 212.8h8v2.06h-5.01v1.54h4.65v1.97h-4.65v1.9h5.15v2.19h-8.14z" fill="#fff"/><path d="m149.41 220.87h-3.39l-.47 1.59h-3.05l3.63-9.66h3.26l3.63 9.66h-3.13zm-.62-2.09-1.07-3.47-1.05 3.47z" fill="#fff"/><path d="m154.61 212.8h3.93l1.51 5.88 1.5-5.88h3.92v9.66h-2.44v-7.37l-1.88 7.37h-2.21l-1.88-7.37v7.37h-2.44v-9.66z" fill="#fff"/><path d="m244.88 160.3-17.85-10.01v10.01z" fill="#16244e"/><path d="m60.97 160.3v-10.34l-18.44 10.34z" fill="#16244e"/></svg>