<svg enable-background="new 0 0 288 288" viewBox="0 0 288 288" xmlns="http://www.w3.org/2000/svg"><path d="m129.16 125.39c4.65-1.75 9.42-2.62 14.13-2.69l-88.66-81.75 72.52 79.7-47.1-42.85 40.55 46.96-56.97-50.66 48.71 55.77-41.07-35.41 30.49 33.5-82.09-74.69 62.82 69.04-28.71-26.12 47.5 53.94-61.37-54.33 62.04 68.18c.33-16.71 10.65-32.35 27.21-38.59z" fill="#dba527"/><path d="m46.72 188.98h194.58v28.13h-194.58z" fill="#dba527"/><path d="m109.46 185.98h5.74l1.8-6.57c.59-2.16 2.18-3.9 4.27-4.69l5.95-2.24c2.09-.79 4.43-.53 6.3.7l6.74 4.43c1.95 1.28 3.13 3.46 3.14 5.79l.01 2.57h2.62l-.02-3.1c-.01-2.14.95-4.16 2.62-5.49l6.47-5.17c1.76-1.41 4.1-1.88 6.27-1.26l6.08 1.73c2.13.6 3.84 2.18 4.62 4.25l3.38 8.97c-.02.03-.04.05-.05.08h3.13c6.33-10.32 8.01-23.35 3.42-35.53-7.89-20.92-31.32-31.52-52.24-23.64s-31.52 31.32-23.64 52.24c.92 2.46 2.06 4.77 3.39 6.93zm54.69-44.24 9.65-.45c2.34 2.97 4.28 6.35 5.68 10.08 1.42 3.76 2.19 7.61 2.38 11.43l-7.57 6.05c-1.76 1.41-4.1 1.88-6.27 1.26l-6.03-1.71c-2.13-.6-3.84-2.18-4.62-4.25l-2.9-7.71c-.79-2.09-.53-4.43.7-6.29l3.46-5.27c1.23-1.86 3.28-3.03 5.52-3.14zm-35.94-3.04 2.61-9.5c7.57-2.81 15.49-3.03 22.77-1.11l3.47 9.2c.79 2.09.53 4.43-.7 6.29l-3.34 5.09c-1.23 1.87-3.28 3.04-5.51 3.14l-8.24.38c-2.15.1-4.23-.8-5.63-2.43l-4-4.67c-1.51-1.76-2.05-4.15-1.43-6.39zm-16.12 5.58 9.49-.44c2.15-.1 4.23.8 5.63 2.43l4.09 4.78c1.51 1.76 2.04 4.15 1.43 6.39l-2.17 7.9c-.59 2.16-2.18 3.9-4.27 4.68l-5.95 2.24c-2.09.79-4.43.53-6.3-.7l-7.92-5.21c-.33-7.86 1.82-15.57 5.97-22.07z" fill="#16244e"/><path d="m209.47 185.98c2.19-6.75 3.38-13.96 3.38-21.43 0-38.39-31.23-69.62-69.62-69.62-7.62 0-14.95 1.23-21.82 3.51l7.74 7.13c4.54-1.09 9.27-1.68 14.15-1.68 33.19 0 60.09 26.9 60.09 60.09 0 7.76-1.47 15.18-4.15 22z" fill="#16244e"/><path d="m143.23 90.24c40.97 0 74.3 33.33 74.3 74.3 0 7.45-1.11 14.64-3.16 21.43h9.03c1.92-7.01 2.95-14.38 2.95-22 0-45.88-37.19-83.07-83.07-83.07-11.86 0-23.13 2.49-33.33 6.97l7.55 6.96c8.03-2.97 16.69-4.59 25.73-4.59z" fill="#16244e"/><path d="m164.78 220.11c-6.67 2.56-13.91 3.96-21.49 3.96-7.57 0-14.81-1.4-21.49-3.96h-39.73c15.19 16.55 36.99 26.93 61.23 26.93 24.23 0 46.04-10.38 61.23-26.93z" fill="#16244e"/><path d="m77 185.98h10.36c-2.68-6.81-4.15-14.23-4.15-22 0-4.92.59-9.69 1.71-14.27l-7.4-8.13c-2.52 7.19-3.9 14.92-3.9 22.96 0 7.48 1.19 14.68 3.38 21.44z" fill="#16244e"/><path d="m72.09 185.98c-2.05-6.79-3.16-13.98-3.16-21.43 0-9.47 1.78-18.53 5.03-26.87l-6.65-7.3c-4.55 10.28-7.08 21.64-7.08 33.61 0 7.62 1.03 14.99 2.95 22h8.91z" fill="#16244e"/><path d="m241.15 218.83h-18.74v8.01z" fill="#16244e"/><path d="m274.11 228.99-51.7.22 21.13-9.59v-19.36h30.46l-15.75 14.82z" fill="#dba527"/><path d="m46.85 219.06h18.74v8.01z" fill="#16244e"/><path d="m13.89 229.23 51.7.22-21.13-9.59v-19.36h-30.46l15.75 14.82z" fill="#dba527"/><g fill="#16244e"><path d="m51.58 192.05h16.59v4.67h-9.85v3.79h8.41v4.38h-8.41v8.87h-6.74z"/><path d="m72.46 202.92c0-3.54.99-6.3 2.96-8.28 1.97-1.97 4.72-2.96 8.25-2.96 3.61 0 6.4.97 8.35 2.91 1.96 1.94 2.93 4.66 2.93 8.15 0 2.54-.43 4.62-1.28 6.24s-2.09 2.89-3.7 3.79-3.63 1.36-6.04 1.36c-2.45 0-4.48-.39-6.08-1.17s-2.91-2.01-3.9-3.7c-1-1.68-1.49-3.8-1.49-6.34zm6.7.03c0 2.19.41 3.77 1.22 4.72.81.96 1.92 1.44 3.33 1.44 1.44 0 2.56-.47 3.35-1.41s1.18-2.62 1.18-5.05c0-2.04-.41-3.54-1.24-4.48-.82-.94-1.94-1.41-3.35-1.41-1.35 0-2.44.48-3.26 1.44s-1.23 2.54-1.23 4.75z"/><path d="m99.24 202.92c0-3.54.99-6.3 2.96-8.28 1.97-1.97 4.72-2.96 8.25-2.96 3.61 0 6.4.97 8.35 2.91 1.96 1.94 2.93 4.66 2.93 8.15 0 2.54-.43 4.62-1.28 6.24s-2.09 2.89-3.7 3.79-3.63 1.36-6.04 1.36c-2.45 0-4.48-.39-6.08-1.17s-2.91-2.01-3.9-3.7c-.99-1.68-1.49-3.8-1.49-6.34zm6.71.03c0 2.19.41 3.77 1.22 4.72.81.96 1.92 1.44 3.33 1.44 1.44 0 2.56-.47 3.35-1.41s1.19-2.62 1.19-5.05c0-2.04-.41-3.54-1.24-4.48-.82-.94-1.94-1.41-3.35-1.41-1.35 0-2.44.48-3.26 1.44-.83.96-1.24 2.54-1.24 4.75z"/><path d="m124.56 192.05h20.4v5.36h-6.84v16.35h-6.71v-16.35h-6.84v-5.36z"/><path d="m149.52 192.05h12.56c2.09 0 3.7.52 4.82 1.56s1.68 2.32 1.68 3.85c0 1.28-.4 2.38-1.2 3.3-.53.61-1.31 1.1-2.34 1.45 1.56.38 2.71 1.02 3.44 1.93.74.91 1.1 2.06 1.1 3.44 0 1.13-.26 2.14-.79 3.04-.52.9-1.24 1.61-2.15 2.13-.56.33-1.41.56-2.55.71-1.51.2-2.51.3-3.01.3h-11.58v-21.71zm6.77 8.52h2.92c1.05 0 1.77-.18 2.18-.54s.61-.88.61-1.56c0-.63-.21-1.13-.61-1.48-.41-.36-1.12-.53-2.14-.53h-2.96zm0 8.53h3.42c1.16 0 1.97-.21 2.44-.61.47-.41.71-.96.71-1.65 0-.64-.23-1.16-.7-1.55s-1.29-.59-2.47-.59h-3.41v4.4z"/><path d="m187.45 210.18h-7.62l-1.06 3.58h-6.85l8.16-21.71h7.32l8.16 21.71h-7.03zm-1.39-4.69-2.4-7.81-2.37 7.81z"/><path d="m199.21 192.05h6.71v16.37h10.47v5.35h-17.18z"/><path d="m220.96 192.05h6.71v16.37h10.47v5.35h-17.18z"/></g><path d="m128.07 235.94 2.4.76c-.37 1.34-.98 2.33-1.83 2.98s-1.94.97-3.25.97c-1.63 0-2.96-.56-4.01-1.67s-1.57-2.63-1.57-4.55c0-2.04.53-3.62 1.58-4.75s2.43-1.69 4.15-1.69c1.5 0 2.71.44 3.65 1.33.56.52.97 1.27 1.25 2.25l-2.45.58c-.14-.63-.45-1.14-.91-1.5-.46-.37-1.02-.55-1.67-.55-.91 0-1.64.33-2.21.98s-.85 1.71-.85 3.16c0 1.55.28 2.65.83 3.31.56.66 1.28.99 2.17.99.66 0 1.22-.21 1.7-.63.47-.42.81-1.07 1.02-1.97z" fill="#fff"/><path d="m133.51 240.44v-12.14h2.47v10.08h6.14v2.06z" fill="#fff"/><path d="m144.72 228.2h2.47v6.63c0 1.05.03 1.73.09 2.05.11.5.36.9.76 1.21.4.3.94.46 1.63.46.7 0 1.23-.14 1.59-.43s.57-.64.64-1.06.11-1.11.11-2.08v-6.77h2.47v6.43c0 1.47-.07 2.51-.2 3.11-.13.61-.38 1.12-.74 1.54s-.84.75-1.44 1-1.39.37-2.35.37c-1.17 0-2.06-.14-2.66-.4-.6-.27-1.08-.62-1.43-1.05s-.58-.88-.69-1.36c-.16-.7-.24-1.74-.24-3.1v-6.55z" fill="#fff"/><path d="m157.95 228.2h4.89c.97 0 1.69.04 2.17.12s.9.25 1.28.51.69.6.94 1.02c.25.43.38.9.38 1.43 0 .57-.16 1.1-.46 1.58-.31.48-.73.84-1.26 1.08.75.22 1.32.59 1.72 1.11s.6 1.14.6 1.84c0 .56-.13 1.1-.39 1.62-.26.53-.61.95-1.06 1.26s-1 .51-1.66.58c-.41.04-1.41.07-2.98.08h-4.17zm2.47 2.04v2.83h1.62c.96 0 1.56-.01 1.79-.04.42-.05.76-.2 1-.44s.36-.56.36-.96c0-.38-.1-.69-.31-.92-.21-.24-.52-.38-.93-.43-.24-.03-.95-.04-2.11-.04zm0 4.87v3.27h2.29c.89 0 1.46-.03 1.69-.08.37-.07.67-.23.9-.49s.35-.61.35-1.04c0-.37-.09-.68-.27-.93-.18-.26-.44-.44-.77-.56-.34-.12-1.07-.17-2.19-.17z" fill="#fff"/><circle cx="112.01" cy="228.43" fill="#fff" r="1.99"/><circle cx="176.7" cy="228.43" fill="#fff" r="1.99"/></svg>